<?xml version="1.0" encoding="UTF-8"?>
<svg version="1.1" xmlns="http://www.w3.org/2000/svg" width="96" height="96">
<path d="M0 0 C5.62534497 4.11282128 8.8963788 9.00023169 11.12109375 15.55078125 C11.12109375 16.87078125 11.12109375 18.19078125 11.12109375 19.55078125 C11.96671875 19.22078125 12.81234375 18.89078125 13.68359375 18.55078125 C20.50828715 16.5654159 25.87419807 17.50640804 32.12109375 20.55078125 C36.92727322 23.50002774 39.5411801 27.19428257 41.12109375 32.55078125 C41.82362744 38.29878418 42.24096724 44.28016283 39.49609375 49.55078125 C36.19655522 53.7186194 32.30316842 57.87422768 27.12109375 59.55078125 C24.48109375 59.55078125 21.84109375 59.55078125 19.12109375 59.55078125 C19.12109375 65.82078125 19.12109375 72.09078125 19.12109375 78.55078125 C8.56109375 78.55078125 -1.99890625 78.55078125 -12.87890625 78.55078125 C-13.37390625 80.53078125 -13.37390625 80.53078125 -13.87890625 82.55078125 C-14.53890625 83.21078125 -15.19890625 83.87078125 -15.87890625 84.55078125 C-19.83483281 84.23681882 -23.12374079 83.80250307 -26.87890625 82.55078125 C-26.87890625 81.23078125 -26.87890625 79.91078125 -26.87890625 78.55078125 C-34.13890625 78.55078125 -41.39890625 78.55078125 -48.87890625 78.55078125 C-48.87890625 62.71078125 -48.87890625 46.87078125 -48.87890625 30.55078125 C-46.23890625 30.55078125 -43.59890625 30.55078125 -40.87890625 30.55078125 C-40.96591797 29.10058594 -40.96591797 29.10058594 -41.0546875 27.62109375 C-41.38001239 18.23314686 -40.7448801 10.9831036 -34.234375 3.71484375 C-24.71310635 -5.09716561 -11.33438085 -6.6070693 0 0 Z M-26.62890625 12.30078125 C-30.93076529 18.51457764 -30.87890625 22.90941847 -30.87890625 30.55078125 C-20.31890625 30.55078125 -9.75890625 30.55078125 1.12109375 30.55078125 C1.43216188 19.09629562 1.43216188 19.09629562 -4.25390625 10.80078125 C-7.74794823 7.80588812 -10.26110936 6.7228873 -14.81640625 6.23828125 C-20.01023844 6.76826413 -22.96343248 8.63530748 -26.62890625 12.30078125 Z M20.12109375 31.55078125 C19.60718123 34.48742422 19.70864385 35.89954456 21.30859375 38.42578125 C23.1303363 39.80255722 23.1303363 39.80255722 25.68359375 39.36328125 C28.26550647 38.70451092 28.26550647 38.70451092 30.12109375 36.55078125 C30.62124328 34.09336588 30.62124328 34.09336588 30.12109375 31.55078125 C26.25880307 27.81723359 23.98338443 27.81723359 20.12109375 31.55078125 Z " fill="#DDBE83" transform="translate(52.87890625,9.44921875)"/>
<path d="M0 0 C3.41900414 3.19842323 4.84474776 5.11661218 5.23828125 9.890625 C5.3928351 16.88622015 5.40371506 21.43741256 1 27 C-5.08523908 33.06896839 -8.18275586 34 -17 34 C-17 40.27 -17 46.54 -17 53 C-27.56 53 -38.12 53 -49 53 C-49.33 54.32 -49.66 55.64 -50 57 C-50.66 57.66 -51.32 58.32 -52 59 C-55.95592656 58.68603757 -59.24483454 58.25172182 -63 57 C-62.77849131 51.22514747 -62.10041101 48.30153743 -57.92259216 44.28341675 C-57.0772567 43.52050827 -57.0772567 43.52050827 -56.21484375 42.7421875 C-55.63916153 42.19063995 -55.06347931 41.63909241 -54.47035217 41.0708313 C-52.64207276 39.32100212 -50.79285898 37.59605944 -48.9375 35.875 C-47.07960377 34.14590699 -45.22803773 32.41207634 -43.39393616 30.65774536 C-42.25625954 29.5697375 -41.10481572 28.49589715 -39.9384613 27.43869019 C-37.18902081 24.81174143 -36.04936292 23.47152337 -35.64672852 19.62548828 C-35.76330811 18.75907715 -35.8798877 17.89266602 -36 17 C-31.91377108 15.13454767 -28.12564393 13.78295993 -23.75 12.75 C-20.24080644 11.80490645 -20.24080644 11.80490645 -17.765625 9.32421875 C-16.87043586 7.21047045 -16.87043586 7.21047045 -16 4 C-15.34 3.34 -14.68 2.68 -14 2 C-10.375 2.375 -10.375 2.375 -7 3 C-7 3.99 -7 4.98 -7 6 C-7.763125 5.62875 -8.52625 5.2575 -9.3125 4.875 C-10.199375 4.58625 -11.08625 4.2975 -12 4 C-15.2243063 5.64137117 -15.2243063 5.64137117 -15.5 8.4375 C-15.24079788 11.20053719 -15.24079788 11.20053719 -12.75 12.875 C-9.83945073 14.06567925 -8.84961767 14.16095535 -6 13 C-5.34 10.69 -4.68 8.38 -4 6 C-2.35 5.67 -0.7 5.34 1 5 C0.505 2.525 0.505 2.525 0 0 Z " fill="#AFAFAF" transform="translate(89,35)"/>
<path d="M0 0 C5.61147313 4.10267925 8.93695622 8.99836865 11.12109375 15.55078125 C11.30859375 18.48828125 11.30859375 18.48828125 11.12109375 20.55078125 C9.14109375 21.54078125 9.14109375 21.54078125 7.12109375 22.55078125 C7.12109375 20.24078125 7.12109375 17.93078125 7.12109375 15.55078125 C6.46109375 15.55078125 5.80109375 15.55078125 5.12109375 15.55078125 C5.03859375 14.76703125 4.95609375 13.98328125 4.87109375 13.17578125 C4.40247529 10.45288788 4.40247529 10.45288788 2.30859375 9.36328125 C1.58671875 9.09515625 0.86484375 8.82703125 0.12109375 8.55078125 C-1.21223958 7.88411458 -2.54557292 7.21744792 -3.87890625 6.55078125 C-3.11578125 7.39640625 -2.35265625 8.24203125 -1.56640625 9.11328125 C2.00942833 13.44085378 3.92339962 17.606789 4.49609375 23.23828125 C4.09310731 26.79799479 3.32959288 27.86903231 1.12109375 30.55078125 C1.06501953 29.46410156 1.06501953 29.46410156 1.0078125 28.35546875 C0.62438801 22.71687328 0.08547591 18.49141818 -2.87890625 13.55078125 C-3.37390625 12.06578125 -3.37390625 12.06578125 -3.87890625 10.55078125 C-8.11482329 8.16807792 -13.0639563 7.4912324 -17.87890625 7.55078125 C-22.60771959 9.15679333 -25.20696256 11.3520126 -27.87890625 15.55078125 C-29.65454843 20.50388839 -30.33144085 25.3498599 -30.87890625 30.55078125 C-32.52890625 30.55078125 -34.17890625 30.55078125 -35.87890625 30.55078125 C-36.56756429 15.24726935 -36.56756429 15.24726935 -31.44921875 8.73046875 C-29.87890625 7.05078125 -29.87890625 7.05078125 -26.87890625 4.55078125 C-25.88890625 4.55078125 -24.89890625 4.55078125 -23.87890625 4.55078125 C-23.54890625 3.23078125 -23.21890625 1.91078125 -22.87890625 0.55078125 C-29.34539372 3.52536549 -32.47069577 7.34051854 -35.87890625 13.55078125 C-37.03461329 17.01790236 -37.20725918 20.09227685 -37.44140625 23.73828125 C-37.52519531 25.01058594 -37.60898437 26.28289063 -37.6953125 27.59375 C-37.78619141 29.05748047 -37.78619141 29.05748047 -37.87890625 30.55078125 C-38.86890625 30.55078125 -39.85890625 30.55078125 -40.87890625 30.55078125 C-41.43794507 21.23346756 -41.67770403 13.3506755 -35.87890625 5.55078125 C-26.58675145 -4.82288325 -12.16090683 -7.08887016 0 0 Z " fill="#C0C0C0" transform="translate(52.87890625,9.44921875)"/>
<path d="M0 0 C3.89086767 0.57642484 6.20617303 2.28168187 9 5 C9.8125 7.75 9.8125 7.75 10 10 C10.66 10 11.32 10 12 10 C12.33 11.98 12.66 13.96 13 16 C13.7425 15.525625 14.485 15.05125 15.25 14.5625 C20.29768645 11.69449633 25.32065501 11.11164104 31.0546875 12.49609375 C35.726668 14.05635894 38.9482651 15.99459794 42 20 C42.3125 22.8125 42.3125 22.8125 42 25 C40.35 25.33 38.7 25.66 37 26 C36.814375 27.670625 36.814375 27.670625 36.625 29.375 C36 33 36 33 34 35 C33.01 34.67 32.02 34.34 31 34 C31.7425 33.4740625 31.7425 33.4740625 32.5 32.9375 C34.73063966 30.05625711 34.19980621 27.52990974 34 24 C31.69 23.67 29.38 23.34 27 23 C25.2170394 25.18817892 24.07177018 26.68500864 23.4375 29.46875 C21.76726872 32.40980944 21.18246231 32.56536109 18.0859375 33.58203125 C16.52120757 34.012995 14.95043396 34.42247779 13.375 34.8125 C12.57320312 35.02841797 11.77140625 35.24433594 10.9453125 35.46679688 C8.96839513 35.99632831 6.9847495 36.50062513 5 37 C4.66146415 30.65558749 4.96553111 26.68962916 8 21 C8.94588185 13.70319713 6.06234183 8.69250183 1.75 3.0625 C1.1725 2.381875 0.595 1.70125 0 1 C0 0.67 0 0.34 0 0 Z " fill="#D6D6D6" transform="translate(48,15)"/>
<path d="M0 0 C-0.1875 1.8125 -0.1875 1.8125 -1 4 C-2.65071396 5.02611949 -4.31970006 6.02308143 -6 7 C-12.66056628 14.04117007 -12.17615672 20.1138807 -13 30 C-0.79 30 11.42 30 24 30 C23.505 31.485 23.505 31.485 23 33 C18.47945986 34.1370201 14.04675533 34.12827853 9.41796875 34.09765625 C8.69565063 34.09664917 7.97333252 34.09564209 7.22912598 34.09460449 C4.54856768 34.08939952 1.86803213 34.07543837 -0.8125 34.0625 C-6.814375 34.041875 -12.81625 34.02125 -19 34 C-19.33 48.52 -19.66 63.04 -20 78 C-21.98 78 -23.96 78 -26 78 C-26 62.16 -26 46.32 -26 30 C-22.37 30 -18.74 30 -15 30 C-15.04640625 29.0821875 -15.0928125 28.164375 -15.140625 27.21875 C-15.35952008 19.77631727 -15.36413809 14.1787797 -11 8 C-10.0409375 6.6078125 -10.0409375 6.6078125 -9.0625 5.1875 C-6.50272568 2.47258784 -3.88177499 0 0 0 Z " fill="#F6E0B0" transform="translate(30,10)"/>
<path d="M0 0 C2.97 0.66 5.94 1.32 9 2 C9 8.27 9 14.54 9 21 C-1.89 21 -12.78 21 -24 21 C-23.505 19.515 -23.505 19.515 -23 18 C-21.35 18 -19.7 18 -18 18 C-17.7525 17.195625 -17.505 16.39125 -17.25 15.5625 C-16.8375 14.716875 -16.425 13.87125 -16 13 C-13.9375 12.375 -13.9375 12.375 -12 12 C-11.22227595 9.66682784 -10.57584432 7.38564077 -10 5 C-9.278125 5.103125 -8.55625 5.20625 -7.8125 5.3125 C-4.73423855 5.29445869 -4.73423855 5.29445869 -2.75 2.375 C-1.8425 1.59125 -0.935 0.8075 0 0 Z " fill="#A16F2A" transform="translate(63,67)"/>
<path d="M0 0 C0.33 0 0.66 0 1 0 C1.47285018 7.26350415 1.48058756 12.10449006 -3 18 C-6.72167259 21.73162358 -10.4838447 24.79580033 -15.83984375 25.23046875 C-17.37318359 25.20919922 -17.37318359 25.20919922 -18.9375 25.1875 C-20.46697266 25.17783203 -20.46697266 25.17783203 -22.02734375 25.16796875 C-25 25 -25 25 -27.72265625 24.3359375 C-28.47417969 24.22507812 -29.22570313 24.11421875 -30 24 C-31.68762851 25.6454378 -33.3540349 27.31288577 -35 29 C-37.8125 29.3125 -37.8125 29.3125 -40 29 C-39.87625 30.1446875 -39.87625 30.1446875 -39.75 31.3125 C-40 34 -40 34 -41.875 35.8125 C-44 37 -44 37 -46 37 C-46.99 39.475 -46.99 39.475 -48 42 C-49.65 42 -51.3 42 -53 42 C-52.938125 42.763125 -52.87625 43.52625 -52.8125 44.3125 C-53 47 -53 47 -54.0625 48.875 C-57.11569315 50.64782183 -59.66411708 49.69235306 -63 49 C-58.07604877 43.10884406 -52.86753627 37.55107714 -47.5 32.0625 C-46.67113281 31.18787109 -45.84226562 30.31324219 -44.98828125 29.41210938 C-44.17746094 28.58646484 -43.36664063 27.76082031 -42.53125 26.91015625 C-41.80486328 26.15871338 -41.07847656 25.40727051 -40.33007812 24.63305664 C-37.36993696 22.55841453 -35.54201633 22.77907855 -32 23 C-30.65909241 22.34870203 -29.32407669 21.68486725 -28 21 C-27.01 21.33 -26.02 21.66 -25 22 C-18.18311612 22.70693611 -12.28554397 22.80177475 -6.62109375 18.609375 C-1.38914599 13.41524855 -0.3298067 7.12382483 0 0 Z " fill="#8B8987" transform="translate(93,44)"/>
<path d="M0 0 C2.475 0.495 2.475 0.495 5 1 C5 16.18 5 31.36 5 47 C3.35 47 1.7 47 0 47 C0 31.49 0 15.98 0 0 Z " fill="#DDBD7B" transform="translate(4,41)"/>
<path d="M0 0 C5.127451 3.51325346 7.53756128 6.72338937 9.625 12.6875 C10.24545455 18.78863636 10.24545455 18.78863636 8.1015625 21.89453125 C7.61429688 22.48621094 7.12703125 23.07789062 6.625 23.6875 C6.56892578 22.60082031 6.56892578 22.60082031 6.51171875 21.4921875 C6.12829426 15.85359203 5.58938216 11.62813693 2.625 6.6875 C2.13 5.2025 2.13 5.2025 1.625 3.6875 C-2.61091704 1.30479667 -7.56005005 0.62795115 -12.375 0.6875 C-17.10381334 2.29351208 -19.70305631 4.48873135 -22.375 8.6875 C-24.15064218 13.64060714 -24.8275346 18.48657865 -25.375 23.6875 C-27.025 23.6875 -28.675 23.6875 -30.375 23.6875 C-30.375 19.7275 -30.375 15.7675 -30.375 11.6875 C-29.715 11.6875 -29.055 11.6875 -28.375 11.6875 C-28.16875 10.78 -27.9625 9.8725 -27.75 8.9375 C-26.03490874 4.88364792 -24.10440676 3.89469992 -20.375 1.6875 C-19.83875 1.130625 -19.3025 0.57375 -18.75 0 C-14.01648959 -4.51835084 -5.03131283 -3.09119404 0 0 Z " fill="#A1A0A0" transform="translate(47.375,16.3125)"/>
<path d="M0 0 C-0.33 2.64 -0.66 5.28 -1 8 C-1.99 8 -2.98 8 -4 8 C-4.66 9.65 -5.32 11.3 -6 13 C-7.65 13 -9.3 13 -11 13 C-10.938125 13.763125 -10.87625 14.52625 -10.8125 15.3125 C-11 18 -11 18 -12.0625 19.875 C-15.11569315 21.64782183 -17.66411708 20.69235306 -21 20 C-17.0060348 15.09312847 -12.6959047 10.55729437 -8.25 6.0625 C-7.67096924 5.47057861 -7.09193848 4.87865723 -6.49536133 4.26879883 C-2.2365407 0 -2.2365407 0 0 0 Z " fill="#828180" transform="translate(51,73)"/>
<path d="M0 0 C0.99 0.33 1.98 0.66 3 1 C2.60167969 1.45890625 2.20335938 1.9178125 1.79296875 2.390625 C-1.60015709 6.31674827 -1.60015709 6.31674827 -4.75 10.4375 C-5.1625 10.953125 -5.575 11.46875 -6 12 C-6.66 12 -7.32 12 -8 12 C-8 12.66 -8 13.32 -8 14 C-8.5775 14.226875 -9.155 14.45375 -9.75 14.6875 C-12.21336629 15.90371482 -12.21336629 15.90371482 -13.75 18.625 C-16 21 -16 21 -18.03125 21.32421875 C-20.02373861 21.31369504 -22.01436624 21.16546948 -24 21 C-23.505 19.515 -23.505 19.515 -23 18 C-21.35 18 -19.7 18 -18 18 C-17.7525 17.195625 -17.505 16.39125 -17.25 15.5625 C-16.8375 14.716875 -16.425 13.87125 -16 13 C-13.9375 12.375 -13.9375 12.375 -12 12 C-11.22227595 9.66682784 -10.57584432 7.38564077 -10 5 C-9.278125 5.103125 -8.55625 5.20625 -7.8125 5.3125 C-3.87958411 4.87550935 -2.53678077 2.89917803 0 0 Z " fill="#8F5D20" transform="translate(63,67)"/>
<path d="M0 0 C-0.1875 1.8125 -0.1875 1.8125 -1 4 C-2.65071396 5.02611949 -4.31970006 6.02308143 -6 7 C-12.34415984 13.70668326 -12.45860543 21.1952147 -13 30 C-13.66 30 -14.32 30 -15 30 C-15.77083559 14.75458509 -15.77083559 14.75458509 -11 8 C-10.360625 7.071875 -9.72125 6.14375 -9.0625 5.1875 C-6.50272568 2.47258784 -3.88177499 0 0 0 Z " fill="#D6D6D6" transform="translate(30,10)"/>
<path d="M0 0 C-1.5847358 3.86328627 -4.05956887 6.28876923 -7.0078125 9.203125 C-7.49329559 9.6857782 -7.97877869 10.1684314 -8.47897339 10.66571045 C-10.02299866 12.19858562 -11.57384824 13.72434004 -13.125 15.25 C-14.17624009 16.29120361 -15.22702657 17.33286541 -16.27734375 18.375 C-18.84633004 20.92199464 -21.42148161 23.46265177 -24 26 C-24.33 25.01 -24.66 24.02 -25 23 C-21.76743024 19.71809541 -18.52842394 16.44273543 -15.28320312 13.17333984 C-14.17950702 12.05956877 -13.07761027 10.94401168 -11.97753906 9.82666016 C-10.39854926 8.22348763 -8.81325886 6.62679089 -7.2265625 5.03125 C-6.73378815 4.52815308 -6.24101379 4.02505615 -5.73330688 3.50671387 C-2.22774341 0 -2.22774341 0 0 0 Z " fill="#7A7A7A" transform="translate(53,64)"/>
<path d="M0 0 C3.89086767 0.57642484 6.20617303 2.28168187 9 5 C9.8125 7.75 9.8125 7.75 10 10 C10.66 10 11.32 10 12 10 C12 12.64 12 15.28 12 18 C11.67 18 11.34 18 11 18 C11 16.02 11 14.04 11 12 C10.34 12 9.68 12 9 12 C8.67 12.66 8.34 13.32 8 14 C7.75765625 13.48050781 7.5153125 12.96101563 7.265625 12.42578125 C5.22307951 8.17571545 3.07063104 4.61895801 0 1 C0 0.67 0 0.34 0 0 Z " fill="#D3D3D3" transform="translate(48,15)"/>
<path d="M0 0 C0.66 0 1.32 0 2 0 C3.60355101 3.50776784 4.22036864 6.14354879 4 10 C2.02 10.99 2.02 10.99 0 12 C-0.19401633 10.18818595 -0.38004375 8.37551468 -0.5625 6.5625 C-0.66691406 5.55316406 -0.77132812 4.54382813 -0.87890625 3.50390625 C-0.91886719 2.67761719 -0.95882812 1.85132812 -1 1 C-0.67 0.67 -0.34 0.34 0 0 Z " fill="#9E9E9E" transform="translate(60,20)"/>
<path d="M0 0 C3.09204833 3.09204833 3.91898756 5.09266064 4.3125 9.5 C3.97875987 13.23788944 3.31190783 14.21839058 1 17 C0.93941406 16.25234375 0.87882812 15.5046875 0.81640625 14.734375 C0.73261719 13.74953125 0.64882813 12.7646875 0.5625 11.75 C0.48128906 10.77546875 0.40007813 9.8009375 0.31640625 8.796875 C0.07788643 6.07014294 0.07788643 6.07014294 -0.59765625 3.765625 C-1 2 -1 2 0 0 Z " fill="#999999" transform="translate(53,23)"/>
<path d="M0 0 C-1.53643852 3.68069887 -3.78150945 5.98775204 -6.625 8.75 C-7.85089844 9.94882813 -7.85089844 9.94882813 -9.1015625 11.171875 C-9.72804688 11.77515625 -10.35453125 12.3784375 -11 13 C-11.33 12.01 -11.66 11.02 -12 10 C-10.38113585 8.32737283 -8.7547271 6.66204463 -7.125 5 C-6.22007813 4.071875 -5.31515625 3.14375 -4.3828125 2.1875 C-2 0 -2 0 0 0 Z " fill="#727272" transform="translate(40,77)"/>
<path d="M0 0 C3.828125 1.7109375 3.828125 1.7109375 5.375 4.3125 C6.13717569 7.58985548 5.5138836 9.05633745 4 12 C2.09681116 9.14521674 1.5380901 7.58058692 0.875 4.3125 C0.70742188 3.50425781 0.53984375 2.69601563 0.3671875 1.86328125 C0.24601562 1.24839844 0.12484375 0.63351562 0 0 Z " fill="#AFAFAF" transform="translate(55,13)"/>
<path d="M0 0 C0.99 0.33 1.98 0.66 3 1 C3 3.64 3 6.28 3 9 C2.67 9 2.34 9 2 9 C2 7.02 2 5.04 2 3 C1.34 3 0.68 3 0 3 C-0.33 3.66 -0.66 4.32 -1 5 C-1.33 3.68 -1.66 2.36 -2 1 C-1.34 0.67 -0.68 0.34 0 0 Z " fill="#C6C6C6" transform="translate(57,24)"/>
<path d="M0 0 C0.99 0.33 1.98 0.66 3 1 C3 2.65 3 4.3 3 6 C2.01 6.33 1.02 6.66 0 7 C0 4.69 0 2.38 0 0 Z " fill="#8B8B8B" transform="translate(61,24)"/>
<path d="M0 0 C-1.39332574 3.36720387 -2.9789286 4.9859524 -6 7 C-6 4 -6 4 -4.125 1.8125 C-2 0 -2 0 0 0 Z " fill="#8B8B8B" transform="translate(53,64)"/>
</svg>
