<?xml version="1.0" encoding="UTF-8"?>
<svg version="1.1" xmlns="http://www.w3.org/2000/svg" width="512" height="512">
<path d="M0 0 C23.70037467 19.69193692 45.12203297 49.25447991 50 80.3125 C50.97625525 80.30558655 50.97625525 80.30558655 51.97223282 80.29853344 C67.80443091 80.18813868 83.63649525 80.10538483 99.4689827 80.05343914 C107.12545844 80.0276512 114.78167737 79.99248985 122.43798828 79.93530273 C129.11081415 79.88548528 135.78345405 79.85321326 142.45646071 79.84205753 C145.99027383 79.83553577 149.5235549 79.82019692 153.05719757 79.78384972 C157.00079868 79.74361424 160.94387805 79.74254953 164.88769531 79.74487305 C166.060858 79.72689667 167.23402069 79.70892029 168.44273376 79.69039917 C176.35068476 79.74100347 176.35068476 79.74100347 179.64300537 82.63874817 C180.0908136 83.52108627 180.53862183 84.40342438 181 85.3125 C181.90298828 86.96958984 181.90298828 86.96958984 182.82421875 88.66015625 C183.4469436 89.89761803 184.06796826 91.13593651 184.6875 92.375 C188.43718981 99.60566068 192.81178729 106.01376684 198 112.3125 C199.15628906 113.71628906 199.15628906 113.71628906 200.3359375 115.1484375 C205.66800251 121.30878445 211.39543517 126.21701999 217.921875 131.0234375 C218.93765625 131.77882813 219.9534375 132.53421875 221 133.3125 C222.03812836 134.0312883 223.07625671 134.7500766 224.14584351 135.49064636 C226.73483275 137.67774256 226.97876437 138.21492737 227.7484436 141.75141907 C227.74718475 143.07135361 227.7459259 144.39128815 227.74462891 145.7512207 C227.7555809 146.85028748 227.7555809 146.85028748 227.76675415 147.97155762 C227.782958 150.39474472 227.75571281 152.81524691 227.7265625 155.23828125 C227.72552304 156.94483946 227.72656717 158.65140007 227.72958374 160.35795593 C227.72940419 163.94692499 227.70856798 167.53499678 227.67236328 171.1237793 C227.62763051 175.65021456 227.62614774 180.17531553 227.63887882 184.70190907 C227.75778017 240.72615142 212.85196939 289.30892915 172.62402344 329.73193359 C168.65872629 333.59112387 164.43172182 337.00862993 160 340.3125 C159.48002441 340.70743652 158.96004883 341.10237305 158.42431641 341.50927734 C146.9046778 350.22803598 134.63679693 357.36956293 121.5 363.375 C120.86594238 363.6743042 120.23188477 363.9736084 119.57861328 364.28198242 C114.29944508 366.59724902 109.42033181 367.34634038 103.90722656 365.67993164 C101.68148335 364.80771534 99.5334506 363.83981678 97.375 362.8125 C96.59157227 362.4501123 95.80814453 362.08772461 95.00097656 361.71435547 C78.57678768 353.99024059 63.86224476 344.35286475 50.71875 331.85546875 C48.79667327 330.05766423 46.88960707 328.37001355 44.859375 326.70703125 C31.24836114 315.30873686 19.36584931 297.39420959 12 281.3125 C12 280.6525 12 279.9925 12 279.3125 C11.45214844 279.28671875 10.90429688 279.2609375 10.33984375 279.234375 C-12.44334171 277.60435848 -36.02102473 267.46728785 -53 252.3125 C-53.83144531 251.57515625 -54.66289062 250.8378125 -55.51953125 250.078125 C-67.4717399 238.84194728 -79.84485165 220.03290877 -80.4375 203.125 C-80 199.3125 -80 199.3125 -77.9375 196.75 C-74.08838451 194.86639029 -72.07579849 195.104856 -68 196.3125 C-64.78965348 199.57076214 -63.92227356 203.52327454 -62.75 207.8125 C-59.14867688 219.99669995 -52.96820252 229.3286188 -44 238.3125 C-43.07960937 239.25029297 -43.07960937 239.25029297 -42.140625 240.20703125 C-30.11577646 251.58952677 -13.04569671 258.4463283 3 261.3125 C2.60167969 260.06597656 2.20335937 258.81945312 1.79296875 257.53515625 C-0.85840233 249.07649729 -3.3514926 240.68029934 -4.875 231.9375 C-4.99464111 231.2556665 -5.11428223 230.57383301 -5.23754883 229.87133789 C-5.86733425 225.98450979 -6.10962145 222.24669203 -6 218.3125 C-6.96486328 218.18294922 -6.96486328 218.18294922 -7.94921875 218.05078125 C-22.3076245 215.81816181 -35.35045901 210.39341945 -44.875 199.0625 C-55.55143098 184.09506327 -56.32295865 166.06607846 -57.26635742 148.36181641 C-57.63801265 130.60793038 -57.63801265 130.60793038 -66.375 116.0625 C-71.88447322 112.38951785 -77.49806533 111.42587255 -84 112.3125 C-92.80799977 115.89541516 -97.17057176 123.51856251 -100.8359375 131.984375 C-114.05620278 169.78191198 -108.89343589 219.50488231 -92 255.3125 C-88.68068902 262.14637556 -85.30081182 268.89813664 -80.5625 274.875 C-78.11067263 277.96992964 -76.9092582 280.22911891 -77 284.3125 C-79.13043478 288.87771739 -79.13043478 288.87771739 -82 290.3125 C-84.8125 290.6875 -84.8125 290.6875 -88 290.3125 C-90.11965233 288.68199821 -91.38500976 287.38554303 -93 285.3125 C-93.52335938 284.65378906 -94.04671875 283.99507813 -94.5859375 283.31640625 C-121.32396626 247.44389255 -127.46568217 194.8972791 -122.17529297 151.55957031 C-119.53151118 133.81812216 -113.89554524 113.09705767 -98.9921875 101.7890625 C-90.38314287 96.12607877 -82.15835271 95.48324672 -72 96.3125 C-61.94714225 98.51312558 -54.09273953 103.83631455 -48.24609375 112.265625 C-41.32124325 123.64061454 -41.78026699 138.28589165 -41.125 151.1875 C-40.21100849 172.83162202 -40.21100849 172.83162202 -30 191.3125 C-23.38008724 196.94133177 -15.38515198 200.27155863 -7 202.3125 C-7.08537123 194.05243479 -7.18060043 185.7925607 -7.28752708 177.53274918 C-7.33691693 173.69504462 -7.38323775 169.85736032 -7.421875 166.01953125 C-7.5870981 109.76952603 -7.5870981 109.76952603 -33.62109375 61.5 C-37.41081651 58.01519746 -41.3848506 55.56036577 -46 53.3125 C-46.79535156 52.9 -47.59070313 52.4875 -48.41015625 52.0625 C-60.93642937 46.48666281 -75.88809255 48.17628039 -88.42578125 52.83984375 C-118.66777584 65.30020655 -138.5894723 92.27064361 -151.1875 121.5 C-170.49488398 167.97247942 -169.24980734 221.65955088 -153.43603516 269 C-152.20838739 272.81631978 -151.71055251 275.47159258 -153 279.3125 C-154.625 281.6875 -154.625 281.6875 -157 283.3125 C-160.42603927 283.25239405 -162.90127551 283.20296521 -165.62548828 280.99511719 C-167.13334905 279.14925991 -167.74367976 277.72752538 -168.4296875 275.453125 C-168.66518311 274.67952637 -168.90067871 273.90592773 -169.14331055 273.10888672 C-169.38476807 272.2685791 -169.62622559 271.42827148 -169.875 270.5625 C-170.1325708 269.6770752 -170.3901416 268.79165039 -170.65551758 267.87939453 C-186.82952987 210.95443341 -186.03969857 149.21106 -157.19628906 96.42919922 C-141.93171033 69.42024052 -119.16397067 47.27182092 -90 36.3125 C-88.58074219 35.77109375 -88.58074219 35.77109375 -87.1328125 35.21875 C-70.47242276 30.00332365 -51.4695593 32.20761159 -36 39.78125 C-15.23953634 51.81288235 -3.93686639 73.56906888 2.23608398 95.96728516 C4.81838446 105.94315303 6.39649422 116.14200275 8 126.3125 C18.78405313 117.47004429 31.19278211 104.69378563 36 91.3125 C35.80622193 84.91782353 33.86644128 79.42402427 31.5625 73.5 C31.03342041 72.13282837 31.03342041 72.13282837 30.49365234 70.73803711 C18.37513114 40.2519704 -1.01815072 13.97029298 -31 -0.6875 C-35.60048976 -2.62246994 -40.22142962 -4.25160355 -45 -5.6875 C-45.79148438 -5.93371094 -46.58296875 -6.17992187 -47.3984375 -6.43359375 C-70.0783214 -12.2030379 -94.77659841 -4.95619297 -114.58984375 6.21484375 C-126.22970805 13.2360984 -136.83047869 21.35246291 -146.52539062 30.86865234 C-147.95469348 32.26813862 -149.40673391 33.64428497 -150.859375 35.01953125 C-158.00855077 41.91626437 -164.0665109 49.38015588 -170 57.3125 C-170.42667969 57.87308105 -170.85335937 58.43366211 -171.29296875 59.01123047 C-198.60027353 94.98335311 -210.06656105 139.43815972 -212.51953125 183.984375 C-212.56107834 184.73022354 -212.60262543 185.47607208 -212.64543152 186.24452209 C-212.84749339 189.94873977 -213.02866133 193.65243012 -213.1784668 197.35913086 C-213.24380784 198.72250165 -213.30931135 200.08586466 -213.375 201.44921875 C-213.42398438 202.65280029 -213.47296875 203.85638184 -213.5234375 205.09643555 C-214.03600362 208.55546912 -214.92575379 210.52203854 -217 213.3125 C-219.84083641 214.73291821 -221.85477278 214.62702272 -225 214.3125 C-227.16796875 212.90625 -227.16796875 212.90625 -229 210.3125 C-229.60381508 207.03861464 -229.51597706 203.81955127 -229.4375 200.5 C-229.42356201 199.49735107 -229.40962402 198.49470215 -229.39526367 197.46166992 C-228.07286589 140.65886993 -214.15661243 84.42753257 -177 40.3125 C-176.56075195 39.78446777 -176.12150391 39.25643555 -175.66894531 38.71240234 C-165.72968984 26.77789349 -155.32706803 15.84822932 -143 6.3125 C-142.45923828 5.88469238 -141.91847656 5.45688477 -141.36132812 5.01611328 C-97.99383991 -29.15855039 -44.51312601 -33.92857161 0 0 Z M51 95.3125 C48.36 100.2625 45.72 105.2125 43 110.3125 C41.13690593 112.98269319 39.38918136 115.41682459 37.3125 117.875 C36.86583984 118.42478516 36.41917969 118.97457031 35.95898438 119.54101562 C34.65266176 121.1431094 33.32746355 122.72791513 32 124.3125 C31.34837891 125.11204102 31.34837891 125.11204102 30.68359375 125.92773438 C28.39760496 128.72287522 26.10259103 131.32038356 23.375 133.6875 C22.73410431 134.24975281 22.09320862 134.81200562 21.43289185 135.39129639 C19 137.3125 19 137.3125 16.20797729 138.88311768 C11.75204484 141.50011689 8.56162117 143.46724775 7.01324463 148.55456543 C6.67672316 152.55713441 6.68104476 156.47773178 6.8203125 160.484375 C6.83325785 161.97199371 6.84170459 163.45965759 6.84591675 164.94732666 C6.8657531 168.06553262 6.9210271 171.18024358 7.00537109 174.29736328 C7.11169767 178.23094313 7.1593955 182.1621327 7.18406582 186.09698677 C7.3138668 205.97866668 7.90127371 225.74520061 13.6875 244.9375 C14.06878052 246.22950317 14.06878052 246.22950317 14.45776367 247.54760742 C27.31262506 289.45961135 56.15514999 322.97569052 94 344.3125 C94.69899414 344.71114258 95.39798828 345.10978516 96.11816406 345.52050781 C98.08081751 346.61753272 100.06199389 347.66144142 102.0625 348.6875 C103.18785156 349.27273438 104.31320312 349.85796875 105.47265625 350.4609375 C115.11195239 352.78803225 126.95044225 344.09862999 135 339.3125 C145.99280085 332.4070136 155.77587518 324.41936899 165 315.3125 C165.56138672 314.77157715 166.12277344 314.2306543 166.70117188 313.67333984 C199.86953736 281.31685129 212.23741309 236.56484497 212.82472706 191.54249287 C212.84977328 189.18378269 212.86786364 186.82508461 212.88549805 184.46630859 C212.91906683 180.45797051 213.02292725 176.45446031 213.14101315 172.44785118 C213.21964511 169.32491295 213.2445774 166.20314455 213.25534248 163.07930374 C213.26983529 161.60153986 213.30438316 160.12381591 213.36045647 158.64704514 C213.68726997 149.86270233 213.68726997 149.86270233 209.378479 142.47264099 C206.43848895 140.11385107 203.23697669 138.23748792 200 136.3125 C197.48424184 134.2104538 195.17003514 131.9641637 192.875 129.625 C192.29226318 129.03468994 191.70952637 128.44437988 191.10913086 127.83618164 C181.66598258 118.03756934 175.4972092 107.37874565 169 95.3125 C130.06 95.3125 91.12 95.3125 51 95.3125 Z " fill="#F9BD77" transform="translate(257,136.6875)"/>
<path d="M0 0 C11.12939819 9.27761597 18.78408067 22.71073119 20.57421875 37.1875 C20.70827744 40.21075467 20.67037394 43.15861165 20.57421875 46.1875 C21.39921875 46.084375 22.22421875 45.98125 23.07421875 45.875 C28.9689075 46.4013115 33.46746162 49.71285737 37.44921875 54 C41.46337153 60.02122917 41.87294716 66.44732099 41.84887695 73.48022461 C41.85398788 74.26672897 41.85909882 75.05323334 41.86436462 75.86357117 C41.87815736 78.43907481 41.87731183 81.01430778 41.875 83.58984375 C41.87889233 85.39531044 41.8832281 87.20077623 41.88798523 89.00624084 C41.89542506 92.78112768 41.89517224 96.55592094 41.88989258 100.33081055 C41.88409802 105.15015557 41.90103952 109.96911626 41.92423725 114.78839779 C41.93902149 118.51435049 41.93983997 122.24021159 41.93672752 125.96618843 C41.93723828 127.742262 41.94242956 129.51834104 41.95253944 131.29438591 C42.04900131 150.60678862 42.04900131 150.60678862 36.51171875 159.5 C29.38664207 166.01868717 21.06510387 166.77667217 11.765625 166.70507812 C10.62930634 166.7120874 9.49298767 166.71909668 8.32223511 166.72631836 C4.59347565 166.74381792 0.86548494 166.73230337 -2.86328125 166.71875 C-5.47062322 166.7214472 -8.0779642 166.72533152 -10.68530273 166.73034668 C-16.13891819 166.73759903 -21.5923161 166.72809929 -27.04589844 166.70898438 C-33.3274412 166.68721999 -39.60846443 166.6942731 -45.88999462 166.71629 C-51.96303814 166.73671424 -58.03585356 166.73444447 -64.10891724 166.72276306 C-66.67961704 166.72010377 -69.2503302 166.72333731 -71.8210144 166.73268127 C-75.4200908 166.74289382 -79.01818391 166.72727825 -82.6171875 166.70507812 C-83.66891144 166.71317505 -84.72063538 166.72127197 -85.80422974 166.72961426 C-93.4265691 166.64296072 -100.88552064 165.43938583 -106.6796875 160.1171875 C-107.32744141 159.10011719 -107.32744141 159.10011719 -107.98828125 158.0625 C-108.67083984 157.03769531 -108.67083984 157.03769531 -109.3671875 155.9921875 C-111.77436139 151.88844456 -111.58789117 148.28993733 -111.6027832 143.6262207 C-111.6093544 142.73984421 -111.6159256 141.85346771 -111.62269592 140.94023132 C-111.64245475 137.99791382 -111.65409854 135.05564747 -111.6640625 132.11328125 C-111.66813803 131.10885672 -111.67221355 130.10443218 -111.67641258 129.06957054 C-111.69728641 123.75121643 -111.71158127 118.4328882 -111.72094727 113.11450195 C-111.73200192 107.62439358 -111.76638734 102.13469162 -111.80611897 96.64472675 C-111.83228647 92.42131301 -111.84063934 88.19799596 -111.84422874 83.97450829 C-111.84909597 81.95114593 -111.86071381 79.92778793 -111.87926674 77.90450478 C-111.90365606 75.06792848 -111.90269322 72.23240136 -111.89575195 69.39575195 C-111.90856201 68.56379303 -111.92137207 67.73183411 -111.93457031 66.87466431 C-111.87786388 60.49800705 -110.22786731 56.31924324 -105.8984375 51.48046875 C-101.0067431 47.64570555 -97.5955777 46.07457527 -91.42578125 46.1875 C-91.4 45.31609375 -91.37421875 44.4446875 -91.34765625 43.546875 C-90.60557971 27.96326762 -85.62737414 16.02059764 -75.42578125 4.1875 C-53.68998045 -14.92952962 -23.54081106 -17.58926945 0 0 Z M-66.73828125 17.5 C-73.28043676 25.78425924 -76.96874965 35.59961613 -76.42578125 46.1875 C-73.78578125 46.1875 -71.14578125 46.1875 -68.42578125 46.1875 C-68.33941406 45.43726563 -68.25304687 44.68703125 -68.1640625 43.9140625 C-66.82231076 34.14020119 -64.02998911 25.5287731 -56.55078125 18.7265625 C-47.97495489 12.51539414 -38.82384408 10.87098091 -28.42578125 12.1875 C-24.81615931 13.11329662 -21.69422362 14.40951429 -18.42578125 16.1875 C-17.77996094 16.52652344 -17.13414062 16.86554688 -16.46875 17.21484375 C-10.13627905 21.09158522 -6.96283954 27.60103067 -4.11328125 34.25 C-3.18867188 38.20060365 -2.76682227 42.14885632 -2.42578125 46.1875 C0.21421875 46.1875 2.85421875 46.1875 5.57421875 46.1875 C6.45751952 36.69201673 2.91588707 26.85105171 -2.6796875 19.24609375 C-10.60178341 9.90617306 -20.34893593 4.26969642 -32.64453125 2.94921875 C-45.8986627 2.51800557 -57.7528801 7.83043125 -66.73828125 17.5 Z M-50.36328125 33.375 C-53.06412128 37.79691353 -53.06412128 37.79691353 -53.42578125 46.1875 C-41.54578125 46.1875 -29.66578125 46.1875 -17.42578125 46.1875 C-18.08794352 37.49107036 -18.08794352 37.49107036 -22.42578125 31.1875 C-31.67188448 24.20574858 -42.7323301 23.94595117 -50.36328125 33.375 Z M-96.42578125 64.1875 C-96.72705111 66.93033989 -96.84587817 69.44720507 -96.82983398 72.19140625 C-96.83669724 73.00632538 -96.84356049 73.82124451 -96.85063171 74.66085815 C-96.86894912 77.35741546 -96.86505564 80.05339377 -96.859375 82.75 C-96.86393412 84.62182811 -96.86923888 86.49365454 -96.8752594 88.36547852 C-96.88419997 92.28961993 -96.88175627 96.21355794 -96.87182617 100.13769531 C-96.86032953 105.17200192 -96.88055371 110.20560786 -96.90974331 115.23982239 C-96.92806836 119.10539221 -96.92782035 122.97079293 -96.92210579 126.83639526 C-96.92195215 128.69278955 -96.92803141 130.54919499 -96.94039726 132.4055481 C-96.95523775 134.99868045 -96.94468265 137.59050304 -96.92749023 140.18359375 C-96.9371582 140.95355682 -96.94682617 141.7235199 -96.95678711 142.51681519 C-96.96380891 146.63914015 -96.96380891 146.63914015 -94.69332981 149.88428688 C-92.09398189 151.37819284 -90.62238848 151.56440062 -87.64379883 151.56845093 C-86.20540146 151.58114014 -86.20540146 151.58114014 -84.73794556 151.59408569 C-83.16996719 151.58497665 -83.16996719 151.58497665 -81.5703125 151.57568359 C-80.46424652 151.58094055 -79.35818054 151.58619751 -78.21859741 151.59161377 C-74.55834885 151.60482972 -70.89853432 151.59606969 -67.23828125 151.5859375 C-64.69767168 151.58795777 -62.15706266 151.59086881 -59.61645508 151.59463501 C-54.29014025 151.59906054 -48.96398134 151.59290553 -43.63769531 151.57861328 C-37.48233821 151.56228695 -31.32727923 151.56757559 -25.17192936 151.5840925 C-19.24735598 151.59935303 -13.32287514 151.59772992 -7.39828491 151.5889473 C-4.87844806 151.58694355 -2.35860363 151.58941066 0.16122437 151.59638596 C3.68060571 151.60398976 7.1994116 151.59241046 10.71875 151.57568359 C11.76406891 151.58175629 12.80938782 151.58782898 13.88638306 151.59408569 C15.32478043 151.58139648 15.32478043 151.58139648 16.79223633 151.56845093 C18.03992546 151.56675431 18.03992546 151.56675431 19.31282043 151.56502342 C22.13905612 151.09320465 23.50217785 150.1421291 25.57421875 148.1875 C26.76421184 144.61752073 26.72181557 141.37367348 26.71948242 137.65844727 C26.72284103 136.89390228 26.72619965 136.1293573 26.72966003 135.34164429 C26.73916491 132.81238178 26.74111286 130.28318551 26.7421875 127.75390625 C26.7454002 125.99657667 26.74876428 124.23924735 26.75227356 122.48191833 C26.75826352 118.79742818 26.76011357 115.11296148 26.75952148 111.4284668 C26.75941982 106.70609987 26.77307671 101.98388317 26.79029369 97.26155186 C26.80140879 93.63188485 26.80344085 90.00225423 26.80291176 86.37257195 C26.80409243 84.63144347 26.80851911 82.89031408 26.81624413 81.14920235 C26.82603493 78.7146767 26.82316973 76.28047811 26.81713867 73.84594727 C26.82275818 73.12633316 26.82837769 72.40671906 26.83416748 71.66529846 C26.8112881 68.03316179 26.69597225 65.21550505 24.57421875 62.1875 C22.16277902 60.98178013 20.6441633 61.05648981 17.9500885 61.04705811 C16.97563278 61.04134796 16.00117706 61.03563782 14.99719238 61.02975464 C13.38801941 61.02807785 13.38801941 61.02807785 11.74633789 61.02636719 C10.61945053 61.02140228 9.49256317 61.01643738 8.33152771 61.01132202 C4.59080401 60.99667494 0.8501227 60.98989472 -2.890625 60.984375 C-5.48132835 60.97862637 -8.07203168 60.97286861 -10.66273499 60.96710205 C-15.40379273 60.95793072 -20.14483344 60.95163286 -24.88589853 60.9486053 C-31.86850617 60.94412202 -38.8509183 60.92656166 -45.83346647 60.8976047 C-51.87762875 60.87340734 -57.92169832 60.8656622 -63.96591377 60.86392975 C-66.5396182 60.86089455 -69.11332163 60.85283708 -71.68699455 60.83974457 C-75.28098406 60.82276444 -78.87449296 60.82454464 -82.46850586 60.83105469 C-83.53926361 60.8218399 -84.61002136 60.81262512 -85.71322632 60.8031311 C-86.69050186 60.80870026 -87.6677774 60.81426941 -88.67466736 60.82000732 C-89.52472823 60.81854076 -90.3747891 60.8170742 -91.2506094 60.8155632 C-93.95073853 61.27726345 -94.83211773 61.98308375 -96.42578125 64.1875 Z " fill="#F9BD77" transform="translate(402.42578125,251.8125)"/>
<path d="M0 0 C23.42848532 19.46603214 45.61695903 49.42114521 50 80.3125 C48.906875 80.56 47.81375 80.8075 46.6875 81.0625 C41.95966472 82.66515603 41.04337358 84.33558163 38.8125 88.5625 C38.544375 89.14 38.27625 89.7175 38 90.3125 C36.1140186 87.4835279 35.22699772 85.03961095 34.25073242 81.81713867 C28.98371567 64.56247399 21.27064525 47.48449947 10 33.3125 C9.55043945 32.74241211 9.10087891 32.17232422 8.63769531 31.58496094 C-5.44804345 13.89434116 -23.10232212 0.620133 -45 -5.6875 C-45.78761719 -5.93113281 -46.57523438 -6.17476562 -47.38671875 -6.42578125 C-70.04533183 -12.23872387 -94.79472602 -4.94597232 -114.58984375 6.21484375 C-126.22970805 13.2360984 -136.83047869 21.35246291 -146.52539062 30.86865234 C-147.95469348 32.26813862 -149.40673391 33.64428497 -150.859375 35.01953125 C-158.00855077 41.91626437 -164.0665109 49.38015588 -170 57.3125 C-170.42667969 57.87308105 -170.85335937 58.43366211 -171.29296875 59.01123047 C-198.60027353 94.98335311 -210.06656105 139.43815972 -212.51953125 183.984375 C-212.56107834 184.73022354 -212.60262543 185.47607208 -212.64543152 186.24452209 C-212.84749339 189.94873977 -213.02866133 193.65243012 -213.1784668 197.35913086 C-213.24380784 198.72250165 -213.30931135 200.08586466 -213.375 201.44921875 C-213.42398438 202.65280029 -213.47296875 203.85638184 -213.5234375 205.09643555 C-214.03600362 208.55546912 -214.92575379 210.52203854 -217 213.3125 C-219.84083641 214.73291821 -221.85477278 214.62702272 -225 214.3125 C-227.16796875 212.90625 -227.16796875 212.90625 -229 210.3125 C-229.60381508 207.03861464 -229.51597706 203.81955127 -229.4375 200.5 C-229.42356201 199.49735107 -229.40962402 198.49470215 -229.39526367 197.46166992 C-228.07286589 140.65886993 -214.15661243 84.42753257 -177 40.3125 C-176.56075195 39.78446777 -176.12150391 39.25643555 -175.66894531 38.71240234 C-165.72968984 26.77789349 -155.32706803 15.84822932 -143 6.3125 C-142.45923828 5.88469238 -141.91847656 5.45688477 -141.36132812 5.01611328 C-97.99383991 -29.15855039 -44.51312601 -33.92857161 0 0 Z " fill="#9B5448" transform="translate(257,136.6875)"/>
<path d="M0 0 C23.91259131 19.18650394 33.88173244 47.31608281 37.42480469 77.07519531 C37.49860352 77.75163086 37.57240234 78.42806641 37.6484375 79.125 C37.86693359 80.97931641 37.86693359 80.97931641 38.08984375 82.87109375 C37.6484375 86.125 37.6484375 86.125 35.09375 88.7421875 C34.00338963 89.51837624 32.89568168 90.27066969 31.7734375 91 C31.21785156 91.38929688 30.66226563 91.77859375 30.08984375 92.1796875 C28.00012282 93.62990347 25.92530909 94.98656421 23.6484375 96.125 C22.79683529 93.57019336 22.45334552 91.75917203 22.25390625 89.125 C20.07270817 62.87614306 14.97508125 34.81616667 -5.3515625 16.125 C-8.53274375 13.7326692 -11.77687473 11.86609602 -15.3515625 10.125 C-16.14691406 9.7125 -16.94226563 9.3 -17.76171875 8.875 C-30.28799187 3.29916281 -45.23965505 4.98878039 -57.77734375 9.65234375 C-88.01933834 22.11270655 -107.9410348 49.08314361 -120.5390625 78.3125 C-139.84644648 124.78497942 -138.60136984 178.47205088 -122.78759766 225.8125 C-121.55994989 229.62881978 -121.06211501 232.28409258 -122.3515625 236.125 C-123.9765625 238.5 -123.9765625 238.5 -126.3515625 240.125 C-129.77760177 240.06489405 -132.25283801 240.01546521 -134.97705078 237.80761719 C-136.48491155 235.96175991 -137.09524226 234.54002538 -137.78125 232.265625 C-138.01674561 231.49202637 -138.25224121 230.71842773 -138.49487305 229.92138672 C-138.85705933 228.66092529 -138.85705933 228.66092529 -139.2265625 227.375 C-139.4841333 226.4895752 -139.7417041 225.60415039 -140.00708008 224.69189453 C-156.18109237 167.76693341 -155.39126107 106.02356 -126.54785156 53.24169922 C-111.28327283 26.23274052 -88.51553317 4.08432092 -59.3515625 -6.875 C-58.40539062 -7.2359375 -57.45921875 -7.596875 -56.484375 -7.96875 C-38.14031681 -13.71123778 -15.79806099 -11.00645691 0 0 Z " fill="#9B5448" transform="translate(226.3515625,179.875)"/>
<path d="M0 0 C27.57913173 23.62188557 45.90962067 54.77031972 58.38989258 88.56518555 C58.98169312 90.14203125 58.98169312 90.14203125 59.58544922 91.75073242 C61.65599903 97.53695183 62.90273332 102.2265117 62.32739258 108.37768555 C60.73710213 111.1165191 59.4927396 111.32736254 56.45239258 112.25268555 C52.61845736 112.40604296 51.3558591 111.68034619 48.32739258 109.37768555 C47.00048828 106.80004883 47.00048828 106.80004883 46.00317383 103.69799805 C45.61983887 102.55194092 45.23650391 101.40588379 44.84155273 100.22509766 C44.44500488 98.99670166 44.04845703 97.76830566 43.63989258 96.50268555 C42.77363011 93.93872794 41.88771549 91.38188687 40.99536133 88.8269043 C40.66157471 87.86939018 40.66157471 87.86939018 40.32104492 86.89253235 C33.06139705 66.31962808 21.84724139 46.68945763 7.32739258 30.37768555 C6.18463867 29.07250977 6.18463867 29.07250977 5.01879883 27.7409668 C2.81769611 25.2577666 0.58155689 22.81268766 -1.67260742 20.37768555 C-2.19854492 19.78600586 -2.72448242 19.19432617 -3.26635742 18.5847168 C-22.28530228 -1.84124184 -52.57374097 -15.40781536 -80.28613281 -16.7487793 C-99.52516997 -17.27176931 -116.57711879 -15.12845917 -134.67260742 -8.62231445 C-135.34759277 -8.38029297 -136.02257812 -8.13827148 -136.71801758 -7.88891602 C-163.19656327 1.82717844 -187.43146996 19.08427144 -206.67260742 39.62768555 C-209.42132979 42.4332424 -210.60268372 43.35321225 -214.42260742 44.69018555 C-218.52198355 44.29601477 -220.04787211 43.55918289 -222.67260742 40.37768555 C-223.48195421 36.87051613 -223.48600409 34.68988993 -221.55151367 31.5690918 C-219.70931873 29.35937666 -217.73979949 27.37974221 -215.67260742 25.37768555 C-214.76124023 24.48049805 -213.84987305 23.58331055 -212.91088867 22.65893555 C-154.80296026 -33.32457673 -66.22000292 -55.43577555 0 0 Z " fill="#9B5448" transform="translate(286.672607421875,93.622314453125)"/>
<path d="M0 0 C8.50010507 5.00528835 14.51804392 12.42065331 17 22 C18.70946039 31.59065682 19.38157992 41.16000953 19.875 50.875 C20.78899151 72.51912202 20.78899151 72.51912202 31 91 C36.66179081 95.81415227 43.08327487 98.48066303 50 101 C51.65 101.66 53.3 102.32 55 103 C55 107.95 55 112.9 55 118 C39.90227967 115.78566769 26.19352357 110.72807114 16.125 98.75 C5.44856902 83.78256327 4.67704135 65.75357846 3.73364258 48.04931641 C3.36198735 30.29543038 3.36198735 30.29543038 -5.375 15.75 C-10.88447322 12.07701785 -16.49806533 11.11337255 -23 12 C-31.80799977 15.58291516 -36.17057176 23.20606251 -39.8359375 31.671875 C-53.05620278 69.46941198 -47.89343589 119.19238231 -31 155 C-27.68068902 161.83387556 -24.30081182 168.58563664 -19.5625 174.5625 C-17.11067263 177.65742964 -15.9092582 179.91661891 -16 184 C-18.13043478 188.56521739 -18.13043478 188.56521739 -21 190 C-23.8125 190.375 -23.8125 190.375 -27 190 C-29.11965233 188.36949821 -30.38500976 187.07304303 -32 185 C-32.52335937 184.34128906 -33.04671875 183.68257812 -33.5859375 183.00390625 C-60.32396626 147.13139255 -66.46568217 94.5847791 -61.17529297 51.24707031 C-58.53151118 33.50562216 -52.89554524 12.78455767 -37.9921875 1.4765625 C-26.45903357 -6.10988476 -12.22381718 -6.32808542 0 0 Z " fill="#9B5448" transform="translate(196,237)"/>
<path d="M0 0 C0.75178528 0.00215515 1.50357056 0.0043103 2.27813721 0.00653076 C13.23064337 0.05693064 23.61622123 0.46455314 34.25 3.3125 C35.00249023 3.50054199 35.75498047 3.68858398 36.53027344 3.88232422 C75.94879482 13.83593639 109.78804903 39.61957355 132.25 73.3125 C132.67660463 77.22304241 132.83646281 79.43280578 130.625 82.75 C127.51456309 84.79634007 125.91322334 84.91057728 122.25 84.3125 C118.19177368 81.5146334 115.52434124 78.26879172 112.625 74.3125 C93.25887731 48.56254085 66.60018594 28.82689979 35.25 20.3125 C34.55052246 20.11640137 33.85104492 19.92030273 33.13037109 19.71826172 C1.29268014 11.12468502 -34.59343019 15.68210559 -63.5625 31.3125 C-65.11904297 32.2096875 -65.11904297 32.2096875 -66.70703125 33.125 C-70.49344957 34.60262666 -72.83449979 34.22517094 -76.75 33.3125 C-78.6875 32.25 -78.6875 32.25 -79.75 30.3125 C-80.73149496 25.32323398 -80.73149496 25.32323398 -79.75 22.3125 C-74.36510438 17.30070632 -67.11965625 14.44194349 -60.375 11.75 C-59.42181885 11.36577881 -58.4686377 10.98155762 -57.48657227 10.58569336 C-38.7863021 3.2417621 -20.06918339 -0.10363508 0 0 Z " fill="#9B5448" transform="translate(205.75,8.6875)"/>
<path d="M0 0 C6.69136574 4.47670133 10.85542528 9.70634194 12.5625 17.6015625 C13.60992235 25.34812366 12.6654697 32.47217245 7.875 38.8125 C5.34330748 43.11637728 5.51686632 46.8906809 5.25390625 51.80859375 C4.7501515 58.14040349 3.23671571 62.20700632 -1.5625 66.4375 C-7.05295631 70.77082788 -12.12663167 70.64775199 -19 70 C-24.01791684 67.58064724 -27.49958655 64.0008269 -30 59 C-30.05627411 57.19714439 -30.10918107 55.39406873 -30.13867188 53.59057617 C-30.30195364 46.39066663 -30.90762368 41.47120084 -35.625 35.69921875 C-39.7933016 30.54805058 -38.54800394 22.24850473 -38 16 C-36.00887026 9.14265633 -32.12371292 3.71840685 -26 0 C-17.28207708 -4.13119591 -8.69734906 -4.28037074 0 0 Z M-21.8125 16.625 C-23.69814893 20.39629785 -23.88778883 23.8870408 -23 28 C-21.64479955 30.10136737 -20.19461992 31.74569114 -18.41015625 33.4921875 C-16.0468459 36.019162 -15.85750458 38.70741294 -15.68359375 42.01171875 C-15.64169922 42.76904297 -15.59980469 43.52636719 -15.55664062 44.30664062 C-15.51732422 45.09232422 -15.47800781 45.87800781 -15.4375 46.6875 C-15.39431641 47.48478516 -15.35113281 48.28207031 -15.30664062 49.10351562 C-15.20072632 51.06881447 -15.09987449 53.03438496 -15 55 C-13.68 55 -12.36 55 -11 55 C-9.64215044 52.28430087 -9.9037353 49.76061007 -9.86132812 46.77807617 C-9.61895929 34.53966192 -9.61895929 34.53966192 -6 30.6875 C-5.00147119 29.79002712 -4.00173167 28.89389654 -3 28 C-1.45959792 24.37552453 -1.94331467 23.16438747 -3.25 19.375 C-5.04344041 15.61806974 -5.04344041 15.61806974 -8 13 C-14.31474284 11.36284445 -17.09588404 12.39630983 -21.8125 16.625 Z " fill="#F9BE77" transform="translate(380,320)"/>
<path d="M0 0 C3.21034652 3.25826214 4.07772644 7.21077454 5.25 11.5 C8.85132312 23.68419995 15.03179748 33.0161188 24 42 C24.61359375 42.62519531 25.2271875 43.25039063 25.859375 43.89453125 C37.43048567 54.84752703 54.3516978 62.04146821 69.828125 65.06640625 C74.52331726 67.08466336 75.87592176 72.85699676 77.6875 77.3125 C78.12449219 78.38113281 78.56148438 79.44976562 79.01171875 80.55078125 C79.33785156 81.35902344 79.66398437 82.16726563 80 83 C56.71692587 81.90432592 32.30078081 71.44201923 15 56 C14.16855469 55.26265625 13.33710938 54.5253125 12.48046875 53.765625 C0.5282601 42.52944728 -11.84485165 23.72040877 -12.4375 6.8125 C-12 3 -12 3 -9.9375 0.4375 C-6.08838451 -1.44610971 -4.07579849 -1.207644 0 0 Z " fill="#9B5549" transform="translate(189,333)"/>
</svg>
